<svg xmlns="http://www.w3.org/2000/svg" xmlns:xlink="http://www.w3.org/1999/xlink" width="500" zoomAndPan="magnify" viewBox="0 0 375 374.999991" height="500" preserveAspectRatio="xMidYMid meet" version="1.2"><defs/><g id="e728e51065"><path style=" stroke:none;fill-rule:nonzero;fill:#670404;fill-opacity:1;" d="M 87.292969 145.449219 L 95.839844 145.449219 L 95.839844 130.769531 L 87.292969 130.769531 Z M 96.445312 146.054688 L 86.691406 146.054688 L 86.691406 130.164062 L 96.445312 130.164062 L 96.445312 146.054688 "/><path style=" stroke:none;fill-rule:nonzero;fill:#670404;fill-opacity:1;" d="M 89.507812 139.164062 C 89.507812 139.265625 89.339844 139.347656 89.136719 139.347656 C 88.933594 139.347656 88.769531 139.265625 88.769531 139.164062 L 88.769531 137.054688 C 88.769531 136.953125 88.933594 136.871094 89.136719 136.871094 C 89.339844 136.871094 89.507812 136.953125 89.507812 137.054688 Z M 88.292969 132.679688 L 88.324219 143.085938 L 96.140625 145.753906 L 96.140625 130.464844 L 88.292969 132.679688 "/><g style="fill:#670404;fill-opacity:1;"><g transform="translate(98.382156, 140.204716)"><path style="stroke:none" d="M 5.546875 -5.84375 C 5.492188 -5.894531 5.394531 -5.960938 5.25 -6.046875 C 5.113281 -6.140625 4.945312 -6.226562 4.75 -6.3125 C 4.5625 -6.40625 4.347656 -6.476562 4.109375 -6.53125 C 3.878906 -6.59375 3.644531 -6.625 3.40625 -6.625 C 2.988281 -6.625 2.675781 -6.546875 2.46875 -6.390625 C 2.257812 -6.234375 2.15625 -6.015625 2.15625 -5.734375 C 2.15625 -5.566406 2.191406 -5.429688 2.265625 -5.328125 C 2.347656 -5.222656 2.460938 -5.128906 2.609375 -5.046875 C 2.753906 -4.960938 2.941406 -4.882812 3.171875 -4.8125 C 3.398438 -4.75 3.660156 -4.679688 3.953125 -4.609375 C 4.347656 -4.503906 4.703125 -4.390625 5.015625 -4.265625 C 5.328125 -4.148438 5.59375 -4.003906 5.8125 -3.828125 C 6.03125 -3.648438 6.195312 -3.4375 6.3125 -3.1875 C 6.4375 -2.9375 6.5 -2.628906 6.5 -2.265625 C 6.5 -1.835938 6.421875 -1.472656 6.265625 -1.171875 C 6.109375 -0.867188 5.890625 -0.625 5.609375 -0.4375 C 5.335938 -0.257812 5.023438 -0.125 4.671875 -0.03125 C 4.328125 0.0507812 3.957031 0.09375 3.5625 0.09375 C 2.96875 0.09375 2.378906 0.00390625 1.796875 -0.171875 C 1.222656 -0.359375 0.707031 -0.613281 0.25 -0.9375 L 0.921875 -2.265625 C 0.992188 -2.203125 1.113281 -2.113281 1.28125 -2 C 1.457031 -1.894531 1.664062 -1.785156 1.90625 -1.671875 C 2.144531 -1.566406 2.410156 -1.476562 2.703125 -1.40625 C 2.992188 -1.332031 3.289062 -1.296875 3.59375 -1.296875 C 4.4375 -1.296875 4.859375 -1.566406 4.859375 -2.109375 C 4.859375 -2.273438 4.8125 -2.414062 4.71875 -2.53125 C 4.625 -2.65625 4.484375 -2.757812 4.296875 -2.84375 C 4.117188 -2.9375 3.90625 -3.019531 3.65625 -3.09375 C 3.40625 -3.175781 3.125 -3.257812 2.8125 -3.34375 C 2.4375 -3.445312 2.109375 -3.5625 1.828125 -3.6875 C 1.546875 -3.8125 1.3125 -3.957031 1.125 -4.125 C 0.9375 -4.289062 0.796875 -4.484375 0.703125 -4.703125 C 0.609375 -4.921875 0.5625 -5.179688 0.5625 -5.484375 C 0.5625 -5.890625 0.632812 -6.25 0.78125 -6.5625 C 0.9375 -6.875 1.144531 -7.132812 1.40625 -7.34375 C 1.675781 -7.550781 1.984375 -7.707031 2.328125 -7.8125 C 2.679688 -7.925781 3.054688 -7.984375 3.453125 -7.984375 C 4.015625 -7.984375 4.53125 -7.894531 5 -7.71875 C 5.46875 -7.539062 5.875 -7.332031 6.21875 -7.09375 Z M 5.546875 -5.84375 "/></g></g><g style="fill:#670404;fill-opacity:1;"><g transform="translate(105.220622, 140.204716)"><path style="stroke:none" d="M 7.28125 0 L 7.28125 -5.25 L 5.25 -1.34375 L 4.40625 -1.34375 L 2.359375 -5.25 L 2.359375 0 L 0.828125 0 L 0.828125 -7.921875 L 2.484375 -7.921875 L 4.8125 -3.40625 L 7.1875 -7.921875 L 8.828125 -7.921875 L 8.828125 0 Z M 7.28125 0 "/></g></g><g style="fill:#670404;fill-opacity:1;"><g transform="translate(114.870332, 140.204716)"><path style="stroke:none" d="M 6.75 -6.578125 L 4.21875 -6.578125 L 4.21875 0 L 2.6875 0 L 2.6875 -6.578125 L 0.15625 -6.578125 L 0.15625 -7.921875 L 6.75 -7.921875 Z M 6.75 -6.578125 "/></g></g><g style="fill:#670404;fill-opacity:1;"><g transform="translate(98.382156, 144.620864)"><path style="stroke:none" d="M 1.890625 -1.84375 L 1.1875 -1.84375 L 1.1875 0 L 0.75 0 L 0.75 -1.84375 L 0.046875 -1.84375 L 0.046875 -2.21875 L 1.890625 -2.21875 Z M 1.890625 -1.84375 "/></g></g><g style="fill:#670404;fill-opacity:1;"><g transform="translate(100.508626, 144.620864)"><path style="stroke:none" d="M 0.1875 0 L 0.1875 -1.640625 L 0.609375 -1.640625 L 0.609375 0 Z M 0.1875 -1.859375 L 0.1875 -2.28125 L 0.609375 -2.28125 L 0.609375 -1.859375 Z M 0.1875 -1.859375 "/></g></g><g style="fill:#670404;fill-opacity:1;"><g transform="translate(101.495188, 144.620864)"><path style="stroke:none" d="M 2.734375 0 L 2.3125 0 L 2.3125 -0.921875 C 2.3125 -1.046875 2.289062 -1.140625 2.25 -1.203125 C 2.207031 -1.265625 2.144531 -1.296875 2.0625 -1.296875 C 1.976562 -1.296875 1.898438 -1.265625 1.828125 -1.203125 C 1.753906 -1.140625 1.703125 -1.054688 1.671875 -0.953125 L 1.671875 0 L 1.25 0 L 1.25 -0.921875 C 1.25 -1.046875 1.226562 -1.140625 1.1875 -1.203125 C 1.144531 -1.265625 1.082031 -1.296875 1 -1.296875 C 0.914062 -1.296875 0.835938 -1.265625 0.765625 -1.203125 C 0.691406 -1.140625 0.640625 -1.054688 0.609375 -0.953125 L 0.609375 0 L 0.1875 0 L 0.1875 -1.640625 L 0.5625 -1.640625 L 0.5625 -1.328125 C 0.625 -1.441406 0.707031 -1.523438 0.8125 -1.578125 C 0.914062 -1.640625 1.035156 -1.671875 1.171875 -1.671875 C 1.316406 -1.671875 1.425781 -1.632812 1.5 -1.5625 C 1.570312 -1.5 1.617188 -1.414062 1.640625 -1.3125 C 1.703125 -1.425781 1.785156 -1.515625 1.890625 -1.578125 C 1.992188 -1.640625 2.113281 -1.671875 2.25 -1.671875 C 2.34375 -1.671875 2.421875 -1.648438 2.484375 -1.609375 C 2.554688 -1.566406 2.609375 -1.515625 2.640625 -1.453125 C 2.671875 -1.398438 2.691406 -1.332031 2.703125 -1.25 C 2.722656 -1.175781 2.734375 -1.097656 2.734375 -1.015625 Z M 2.734375 0 "/></g></g><g style="fill:#670404;fill-opacity:1;"><g transform="translate(104.598721, 144.620864)"><path style="stroke:none" d="M 1.125 0.03125 C 1 0.03125 0.882812 0.00390625 0.78125 -0.046875 C 0.6875 -0.109375 0.613281 -0.1875 0.5625 -0.28125 L 0.5625 0 L 0.1875 0 L 0.1875 -2.28125 L 0.609375 -2.28125 L 0.609375 -1.34375 C 0.671875 -1.445312 0.75 -1.523438 0.84375 -1.578125 C 0.9375 -1.640625 1.046875 -1.671875 1.171875 -1.671875 C 1.273438 -1.671875 1.367188 -1.644531 1.453125 -1.59375 C 1.546875 -1.550781 1.625 -1.488281 1.6875 -1.40625 C 1.75 -1.332031 1.796875 -1.242188 1.828125 -1.140625 C 1.867188 -1.035156 1.890625 -0.925781 1.890625 -0.8125 C 1.890625 -0.695312 1.867188 -0.585938 1.828125 -0.484375 C 1.785156 -0.378906 1.726562 -0.285156 1.65625 -0.203125 C 1.59375 -0.128906 1.515625 -0.0703125 1.421875 -0.03125 C 1.328125 0.0078125 1.226562 0.03125 1.125 0.03125 Z M 1 -0.328125 C 1.070312 -0.328125 1.132812 -0.335938 1.1875 -0.359375 C 1.25 -0.390625 1.296875 -0.425781 1.328125 -0.46875 C 1.367188 -0.507812 1.398438 -0.554688 1.421875 -0.609375 C 1.441406 -0.671875 1.453125 -0.738281 1.453125 -0.8125 C 1.453125 -0.875 1.441406 -0.9375 1.421875 -1 C 1.398438 -1.0625 1.367188 -1.113281 1.328125 -1.15625 C 1.296875 -1.207031 1.253906 -1.242188 1.203125 -1.265625 C 1.148438 -1.296875 1.09375 -1.3125 1.03125 -1.3125 C 0.9375 -1.3125 0.851562 -1.28125 0.78125 -1.21875 C 0.707031 -1.15625 0.648438 -1.078125 0.609375 -0.984375 L 0.609375 -0.59375 C 0.617188 -0.550781 0.640625 -0.515625 0.671875 -0.484375 C 0.703125 -0.453125 0.734375 -0.421875 0.765625 -0.390625 C 0.804688 -0.367188 0.847656 -0.351562 0.890625 -0.34375 C 0.929688 -0.332031 0.96875 -0.328125 1 -0.328125 Z M 1 -0.328125 "/></g></g><g style="fill:#670404;fill-opacity:1;"><g transform="translate(106.772164, 144.620864)"><path style="stroke:none" d="M 0.953125 0.03125 C 0.816406 0.03125 0.695312 0.0078125 0.59375 -0.03125 C 0.488281 -0.0820312 0.394531 -0.144531 0.3125 -0.21875 C 0.238281 -0.289062 0.179688 -0.378906 0.140625 -0.484375 C 0.109375 -0.585938 0.09375 -0.695312 0.09375 -0.8125 C 0.09375 -0.925781 0.109375 -1.035156 0.140625 -1.140625 C 0.179688 -1.242188 0.238281 -1.332031 0.3125 -1.40625 C 0.394531 -1.488281 0.488281 -1.550781 0.59375 -1.59375 C 0.695312 -1.644531 0.816406 -1.671875 0.953125 -1.671875 C 1.085938 -1.671875 1.207031 -1.644531 1.3125 -1.59375 C 1.414062 -1.550781 1.503906 -1.488281 1.578125 -1.40625 C 1.648438 -1.332031 1.707031 -1.242188 1.75 -1.140625 C 1.789062 -1.035156 1.8125 -0.929688 1.8125 -0.828125 C 1.8125 -0.796875 1.804688 -0.765625 1.796875 -0.734375 C 1.796875 -0.710938 1.796875 -0.695312 1.796875 -0.6875 L 0.53125 -0.6875 C 0.539062 -0.625 0.554688 -0.566406 0.578125 -0.515625 C 0.597656 -0.460938 0.628906 -0.414062 0.671875 -0.375 C 0.710938 -0.34375 0.757812 -0.316406 0.8125 -0.296875 C 0.863281 -0.285156 0.914062 -0.28125 0.96875 -0.28125 C 1.050781 -0.28125 1.128906 -0.296875 1.203125 -0.328125 C 1.273438 -0.367188 1.328125 -0.425781 1.359375 -0.5 L 1.71875 -0.390625 C 1.65625 -0.265625 1.554688 -0.160156 1.421875 -0.078125 C 1.285156 -0.00390625 1.128906 0.03125 0.953125 0.03125 Z M 1.375 -0.953125 C 1.363281 -1.078125 1.316406 -1.175781 1.234375 -1.25 C 1.160156 -1.320312 1.066406 -1.359375 0.953125 -1.359375 C 0.890625 -1.359375 0.832031 -1.347656 0.78125 -1.328125 C 0.738281 -1.304688 0.695312 -1.28125 0.65625 -1.25 C 0.625 -1.21875 0.59375 -1.175781 0.5625 -1.125 C 0.539062 -1.070312 0.53125 -1.015625 0.53125 -0.953125 Z M 1.375 -0.953125 "/></g></g><g style="fill:#670404;fill-opacity:1;"><g transform="translate(108.836001, 144.620864)"><path style="stroke:none" d="M 1.171875 -1.28125 C 1.035156 -1.269531 0.914062 -1.238281 0.8125 -1.1875 C 0.71875 -1.144531 0.648438 -1.078125 0.609375 -0.984375 L 0.609375 0 L 0.1875 0 L 0.1875 -1.640625 L 0.578125 -1.640625 L 0.578125 -1.28125 C 0.609375 -1.34375 0.640625 -1.394531 0.671875 -1.4375 C 0.710938 -1.476562 0.753906 -1.515625 0.796875 -1.546875 C 0.847656 -1.585938 0.894531 -1.613281 0.9375 -1.625 C 0.988281 -1.644531 1.035156 -1.65625 1.078125 -1.65625 C 1.097656 -1.65625 1.113281 -1.65625 1.125 -1.65625 C 1.144531 -1.65625 1.160156 -1.65625 1.171875 -1.65625 Z M 1.171875 -1.28125 "/></g></g><g style="fill:#670404;fill-opacity:1;"><g transform="translate(110.235934, 144.620864)"><path style="stroke:none" d=""/></g></g><g style="fill:#670404;fill-opacity:1;"><g transform="translate(111.17552, 144.620864)"><path style="stroke:none" d="M 1.671875 0 L 1.5 -0.1875 C 1.40625 -0.113281 1.304688 -0.0546875 1.203125 -0.015625 C 1.097656 0.015625 0.988281 0.03125 0.875 0.03125 C 0.757812 0.03125 0.65625 0.015625 0.5625 -0.015625 C 0.46875 -0.0546875 0.390625 -0.101562 0.328125 -0.15625 C 0.265625 -0.21875 0.210938 -0.289062 0.171875 -0.375 C 0.140625 -0.457031 0.125 -0.539062 0.125 -0.625 C 0.125 -0.695312 0.132812 -0.757812 0.15625 -0.8125 C 0.175781 -0.875 0.203125 -0.925781 0.234375 -0.96875 C 0.273438 -1.019531 0.316406 -1.066406 0.359375 -1.109375 C 0.410156 -1.148438 0.460938 -1.191406 0.515625 -1.234375 C 0.421875 -1.328125 0.351562 -1.410156 0.3125 -1.484375 C 0.28125 -1.554688 0.265625 -1.632812 0.265625 -1.71875 C 0.265625 -1.789062 0.28125 -1.859375 0.3125 -1.921875 C 0.34375 -1.992188 0.382812 -2.050781 0.4375 -2.09375 C 0.5 -2.144531 0.566406 -2.179688 0.640625 -2.203125 C 0.710938 -2.234375 0.789062 -2.25 0.875 -2.25 C 0.957031 -2.25 1.03125 -2.238281 1.09375 -2.21875 C 1.164062 -2.195312 1.226562 -2.164062 1.28125 -2.125 C 1.34375 -2.082031 1.390625 -2.03125 1.421875 -1.96875 C 1.453125 -1.90625 1.46875 -1.832031 1.46875 -1.75 C 1.46875 -1.632812 1.429688 -1.53125 1.359375 -1.4375 C 1.296875 -1.34375 1.207031 -1.257812 1.09375 -1.1875 L 1.515625 -0.734375 C 1.546875 -0.804688 1.570312 -0.878906 1.59375 -0.953125 C 1.613281 -1.035156 1.625 -1.125 1.625 -1.21875 L 1.953125 -1.21875 C 1.953125 -1.070312 1.9375 -0.9375 1.90625 -0.8125 C 1.875 -0.6875 1.828125 -0.578125 1.765625 -0.484375 L 2.21875 0 Z M 0.921875 -0.296875 C 1.046875 -0.296875 1.164062 -0.335938 1.28125 -0.421875 L 0.765625 -0.96875 C 0.691406 -0.914062 0.632812 -0.859375 0.59375 -0.796875 C 0.550781 -0.742188 0.53125 -0.6875 0.53125 -0.625 C 0.53125 -0.582031 0.535156 -0.539062 0.546875 -0.5 C 0.566406 -0.457031 0.59375 -0.421875 0.625 -0.390625 C 0.664062 -0.359375 0.707031 -0.332031 0.75 -0.3125 C 0.800781 -0.300781 0.859375 -0.296875 0.921875 -0.296875 Z M 0.65625 -1.734375 C 0.65625 -1.710938 0.65625 -1.691406 0.65625 -1.671875 C 0.664062 -1.648438 0.675781 -1.628906 0.6875 -1.609375 C 0.707031 -1.585938 0.726562 -1.5625 0.75 -1.53125 C 0.769531 -1.507812 0.800781 -1.476562 0.84375 -1.4375 C 0.925781 -1.5 0.988281 -1.550781 1.03125 -1.59375 C 1.070312 -1.644531 1.09375 -1.695312 1.09375 -1.75 C 1.09375 -1.800781 1.070312 -1.84375 1.03125 -1.875 C 0.988281 -1.914062 0.9375 -1.9375 0.875 -1.9375 C 0.8125 -1.9375 0.757812 -1.914062 0.71875 -1.875 C 0.675781 -1.832031 0.65625 -1.785156 0.65625 -1.734375 Z M 0.65625 -1.734375 "/></g></g><g style="fill:#670404;fill-opacity:1;"><g transform="translate(113.593229, 144.620864)"><path style="stroke:none" d=""/></g></g><g style="fill:#670404;fill-opacity:1;"><g transform="translate(114.532816, 144.620864)"><path style="stroke:none" d="M 1.546875 -1.640625 C 1.535156 -1.648438 1.507812 -1.664062 1.46875 -1.6875 C 1.4375 -1.71875 1.390625 -1.742188 1.328125 -1.765625 C 1.273438 -1.796875 1.21875 -1.816406 1.15625 -1.828125 C 1.09375 -1.847656 1.023438 -1.859375 0.953125 -1.859375 C 0.835938 -1.859375 0.75 -1.832031 0.6875 -1.78125 C 0.632812 -1.738281 0.609375 -1.679688 0.609375 -1.609375 C 0.609375 -1.554688 0.617188 -1.515625 0.640625 -1.484375 C 0.660156 -1.460938 0.691406 -1.4375 0.734375 -1.40625 C 0.773438 -1.382812 0.828125 -1.363281 0.890625 -1.34375 C 0.953125 -1.332031 1.023438 -1.316406 1.109375 -1.296875 C 1.210938 -1.265625 1.304688 -1.226562 1.390625 -1.1875 C 1.484375 -1.15625 1.5625 -1.113281 1.625 -1.0625 C 1.6875 -1.019531 1.734375 -0.960938 1.765625 -0.890625 C 1.804688 -0.816406 1.828125 -0.734375 1.828125 -0.640625 C 1.828125 -0.515625 1.800781 -0.410156 1.75 -0.328125 C 1.707031 -0.242188 1.644531 -0.175781 1.5625 -0.125 C 1.488281 -0.0703125 1.398438 -0.03125 1.296875 0 C 1.203125 0.0195312 1.101562 0.03125 1 0.03125 C 0.832031 0.03125 0.664062 0.00390625 0.5 -0.046875 C 0.34375 -0.0976562 0.195312 -0.171875 0.0625 -0.265625 L 0.265625 -0.640625 C 0.273438 -0.617188 0.304688 -0.59375 0.359375 -0.5625 C 0.410156 -0.53125 0.46875 -0.5 0.53125 -0.46875 C 0.601562 -0.4375 0.675781 -0.410156 0.75 -0.390625 C 0.832031 -0.367188 0.914062 -0.359375 1 -0.359375 C 1.238281 -0.359375 1.359375 -0.4375 1.359375 -0.59375 C 1.359375 -0.632812 1.34375 -0.671875 1.3125 -0.703125 C 1.289062 -0.742188 1.253906 -0.773438 1.203125 -0.796875 C 1.148438 -0.828125 1.085938 -0.851562 1.015625 -0.875 C 0.953125 -0.894531 0.875 -0.914062 0.78125 -0.9375 C 0.675781 -0.96875 0.582031 -1 0.5 -1.03125 C 0.425781 -1.0625 0.363281 -1.097656 0.3125 -1.140625 C 0.257812 -1.191406 0.21875 -1.25 0.1875 -1.3125 C 0.164062 -1.375 0.15625 -1.445312 0.15625 -1.53125 C 0.15625 -1.644531 0.175781 -1.742188 0.21875 -1.828125 C 0.257812 -1.921875 0.316406 -1.992188 0.390625 -2.046875 C 0.460938 -2.109375 0.546875 -2.15625 0.640625 -2.1875 C 0.742188 -2.21875 0.851562 -2.234375 0.96875 -2.234375 C 1.125 -2.234375 1.265625 -2.207031 1.390625 -2.15625 C 1.523438 -2.113281 1.644531 -2.054688 1.75 -1.984375 Z M 1.546875 -1.640625 "/></g></g><g style="fill:#670404;fill-opacity:1;"><g transform="translate(116.640495, 144.620864)"><path style="stroke:none" d="M 0.640625 0.03125 C 0.554688 0.03125 0.476562 0.0195312 0.40625 0 C 0.34375 -0.03125 0.285156 -0.0664062 0.234375 -0.109375 C 0.179688 -0.160156 0.140625 -0.21875 0.109375 -0.28125 C 0.0859375 -0.34375 0.078125 -0.410156 0.078125 -0.484375 C 0.078125 -0.566406 0.09375 -0.640625 0.125 -0.703125 C 0.164062 -0.765625 0.210938 -0.816406 0.265625 -0.859375 C 0.328125 -0.910156 0.398438 -0.945312 0.484375 -0.96875 C 0.578125 -1 0.675781 -1.015625 0.78125 -1.015625 C 0.851562 -1.015625 0.921875 -1.007812 0.984375 -1 C 1.054688 -0.988281 1.117188 -0.96875 1.171875 -0.9375 L 1.171875 -1.03125 C 1.171875 -1.144531 1.140625 -1.226562 1.078125 -1.28125 C 1.015625 -1.34375 0.925781 -1.375 0.8125 -1.375 C 0.71875 -1.375 0.628906 -1.359375 0.546875 -1.328125 C 0.460938 -1.296875 0.378906 -1.25 0.296875 -1.1875 L 0.171875 -1.453125 C 0.378906 -1.597656 0.601562 -1.671875 0.84375 -1.671875 C 1.082031 -1.671875 1.265625 -1.609375 1.390625 -1.484375 C 1.523438 -1.367188 1.59375 -1.203125 1.59375 -0.984375 L 1.59375 -0.484375 C 1.59375 -0.441406 1.597656 -0.410156 1.609375 -0.390625 C 1.628906 -0.367188 1.65625 -0.359375 1.6875 -0.359375 L 1.6875 0 C 1.625 0.0078125 1.566406 0.015625 1.515625 0.015625 C 1.429688 0.015625 1.367188 0 1.328125 -0.03125 C 1.285156 -0.0625 1.257812 -0.109375 1.25 -0.171875 L 1.234375 -0.265625 C 1.160156 -0.171875 1.070312 -0.0976562 0.96875 -0.046875 C 0.863281 0.00390625 0.753906 0.03125 0.640625 0.03125 Z M 0.75 -0.28125 C 0.820312 -0.28125 0.890625 -0.289062 0.953125 -0.3125 C 1.015625 -0.332031 1.066406 -0.363281 1.109375 -0.40625 C 1.148438 -0.445312 1.171875 -0.488281 1.171875 -0.53125 L 1.171875 -0.71875 C 1.117188 -0.738281 1.0625 -0.753906 1 -0.765625 C 0.945312 -0.773438 0.894531 -0.78125 0.84375 -0.78125 C 0.738281 -0.78125 0.648438 -0.753906 0.578125 -0.703125 C 0.503906 -0.660156 0.46875 -0.597656 0.46875 -0.515625 C 0.46875 -0.453125 0.492188 -0.394531 0.546875 -0.34375 C 0.609375 -0.300781 0.675781 -0.28125 0.75 -0.28125 Z M 0.75 -0.28125 "/></g></g><g style="fill:#670404;fill-opacity:1;"><g transform="translate(118.626041, 144.620864)"><path style="stroke:none" d="M 2.21875 -1.640625 L 2.625 -1.640625 L 1.9375 0 L 1.59375 0 L 1.3125 -0.71875 L 1.03125 0 L 0.6875 0 L 0 -1.640625 L 0.40625 -1.640625 L 0.890625 -0.390625 L 1.09375 -0.921875 L 0.796875 -1.640625 L 1.140625 -1.640625 L 1.3125 -1.125 L 1.484375 -1.640625 L 1.828125 -1.640625 L 1.53125 -0.921875 L 1.734375 -0.390625 Z M 2.21875 -1.640625 "/></g></g><g style="fill:#670404;fill-opacity:1;"><g transform="translate(121.441465, 144.620864)"><path style="stroke:none" d=""/></g></g><g style="fill:#670404;fill-opacity:1;"><g transform="translate(122.381051, 144.620864)"><path style="stroke:none" d="M 2.046875 0 L 2.046875 -1.46875 L 1.46875 -0.375 L 1.234375 -0.375 L 0.65625 -1.46875 L 0.65625 0 L 0.234375 0 L 0.234375 -2.21875 L 0.6875 -2.21875 L 1.34375 -0.953125 L 2.015625 -2.21875 L 2.46875 -2.21875 L 2.46875 0 Z M 2.046875 0 "/></g></g><g style="fill:#670404;fill-opacity:1;"><g transform="translate(125.277898, 144.620864)"><path style="stroke:none" d="M 0.1875 0 L 0.1875 -1.640625 L 0.609375 -1.640625 L 0.609375 0 Z M 0.1875 -1.859375 L 0.1875 -2.28125 L 0.609375 -2.28125 L 0.609375 -1.859375 Z M 0.1875 -1.859375 "/></g></g><g style="fill:#670404;fill-opacity:1;"><g transform="translate(126.26446, 144.620864)"><path style="stroke:none" d="M 0.1875 -2.28125 L 0.609375 -2.28125 L 0.609375 -0.53125 C 0.609375 -0.46875 0.617188 -0.414062 0.640625 -0.375 C 0.671875 -0.34375 0.71875 -0.328125 0.78125 -0.328125 C 0.800781 -0.328125 0.828125 -0.332031 0.859375 -0.34375 C 0.890625 -0.351562 0.914062 -0.363281 0.9375 -0.375 L 1 -0.0625 C 0.945312 -0.03125 0.878906 -0.0078125 0.796875 0 C 0.722656 0.0195312 0.65625 0.03125 0.59375 0.03125 C 0.46875 0.03125 0.367188 -0.00390625 0.296875 -0.078125 C 0.222656 -0.148438 0.1875 -0.25 0.1875 -0.375 Z M 0.1875 -2.28125 "/></g></g><g style="fill:#670404;fill-opacity:1;"><g transform="translate(127.445182, 144.620864)"><path style="stroke:none" d="M 0.1875 -2.28125 L 0.609375 -2.28125 L 0.609375 -0.53125 C 0.609375 -0.46875 0.617188 -0.414062 0.640625 -0.375 C 0.671875 -0.34375 0.71875 -0.328125 0.78125 -0.328125 C 0.800781 -0.328125 0.828125 -0.332031 0.859375 -0.34375 C 0.890625 -0.351562 0.914062 -0.363281 0.9375 -0.375 L 1 -0.0625 C 0.945312 -0.03125 0.878906 -0.0078125 0.796875 0 C 0.722656 0.0195312 0.65625 0.03125 0.59375 0.03125 C 0.46875 0.03125 0.367188 -0.00390625 0.296875 -0.078125 C 0.222656 -0.148438 0.1875 -0.25 0.1875 -0.375 Z M 0.1875 -2.28125 "/></g></g></g></svg>