<svg xmlns="http://www.w3.org/2000/svg" xmlns:xlink="http://www.w3.org/1999/xlink" width="500" zoomAndPan="magnify" viewBox="0 0 375 374.999991" height="500" preserveAspectRatio="xMidYMid meet" version="1.2"><defs/><g id="bd150a20dd"><rect x="0" width="375" y="0" height="374.999991" style="fill:#ffffff;fill-opacity:1;stroke:none;"/><path style=" stroke:none;fill-rule:nonzero;fill:#670404;fill-opacity:1;" d="M 107.894531 228.984375 L 154.089844 228.984375 L 154.089844 149.636719 L 107.894531 149.636719 Z M 157.347656 232.246094 L 104.632812 232.246094 L 104.632812 146.378906 L 157.347656 146.378906 L 157.347656 232.246094 "/><path style=" stroke:none;fill-rule:nonzero;fill:#670404;fill-opacity:1;" d="M 119.859375 195.011719 C 119.859375 195.554688 118.960938 195.996094 117.859375 195.996094 C 116.753906 195.996094 115.863281 195.554688 115.863281 195.011719 L 115.863281 183.609375 C 115.863281 183.0625 116.753906 182.625 117.859375 182.625 C 118.960938 182.625 119.859375 183.0625 119.859375 183.609375 Z M 113.304688 159.964844 L 113.472656 216.207031 L 155.714844 230.613281 L 155.714844 148.007812 L 113.304688 159.964844 "/><g style="fill:#670404;fill-opacity:1;"><g transform="translate(167.396053, 200.261939)"><path style="stroke:none" d="M 29.8125 -31.4375 C 29.539062 -31.71875 29.035156 -32.097656 28.296875 -32.578125 C 27.554688 -33.054688 26.65625 -33.523438 25.59375 -33.984375 C 24.53125 -34.453125 23.378906 -34.84375 22.140625 -35.15625 C 20.898438 -35.476562 19.640625 -35.640625 18.359375 -35.640625 C 16.078125 -35.640625 14.375 -35.21875 13.25 -34.375 C 12.132812 -33.539062 11.578125 -32.363281 11.578125 -30.84375 C 11.578125 -29.957031 11.785156 -29.222656 12.203125 -28.640625 C 12.628906 -28.066406 13.238281 -27.554688 14.03125 -27.109375 C 14.832031 -26.671875 15.84375 -26.269531 17.0625 -25.90625 C 18.289062 -25.550781 19.703125 -25.175781 21.296875 -24.78125 C 23.378906 -24.21875 25.269531 -23.613281 26.96875 -22.96875 C 28.664062 -22.332031 30.101562 -21.535156 31.28125 -20.578125 C 32.46875 -19.617188 33.378906 -18.46875 34.015625 -17.125 C 34.660156 -15.789062 34.984375 -14.144531 34.984375 -12.1875 C 34.984375 -9.90625 34.550781 -7.953125 33.6875 -6.328125 C 32.832031 -4.710938 31.671875 -3.40625 30.203125 -2.40625 C 28.742188 -1.40625 27.0625 -0.671875 25.15625 -0.203125 C 23.257812 0.253906 21.273438 0.484375 19.203125 0.484375 C 16.003906 0.484375 12.84375 0.00390625 9.71875 -0.953125 C 6.601562 -1.921875 3.800781 -3.285156 1.3125 -5.046875 L 4.984375 -12.1875 C 5.335938 -11.820312 5.984375 -11.347656 6.921875 -10.765625 C 7.867188 -10.191406 8.984375 -9.613281 10.265625 -9.03125 C 11.546875 -8.445312 12.960938 -7.953125 14.515625 -7.546875 C 16.078125 -7.148438 17.675781 -6.953125 19.3125 -6.953125 C 23.875 -6.953125 26.15625 -8.414062 26.15625 -11.34375 C 26.15625 -12.257812 25.894531 -13.035156 25.375 -13.671875 C 24.851562 -14.316406 24.113281 -14.878906 23.15625 -15.359375 C 22.195312 -15.835938 21.035156 -16.273438 19.671875 -16.671875 C 18.316406 -17.078125 16.800781 -17.519531 15.125 -18 C 13.082031 -18.5625 11.3125 -19.171875 9.8125 -19.828125 C 8.3125 -20.484375 7.0625 -21.257812 6.0625 -22.15625 C 5.0625 -23.0625 4.3125 -24.101562 3.8125 -25.28125 C 3.3125 -26.46875 3.0625 -27.878906 3.0625 -29.515625 C 3.0625 -31.679688 3.457031 -33.601562 4.25 -35.28125 C 5.050781 -36.957031 6.160156 -38.351562 7.578125 -39.46875 C 9.003906 -40.59375 10.65625 -41.445312 12.53125 -42.03125 C 14.414062 -42.613281 16.4375 -42.90625 18.59375 -42.90625 C 21.59375 -42.90625 24.351562 -42.429688 26.875 -41.484375 C 29.394531 -40.546875 31.597656 -39.4375 33.484375 -38.15625 Z M 29.8125 -31.4375 "/></g></g><g style="fill:#670404;fill-opacity:1;"><g transform="translate(204.168893, 200.261939)"><path style="stroke:none" d="M 39.1875 0 L 39.1875 -28.203125 L 28.203125 -7.203125 L 23.703125 -7.203125 L 12.71875 -28.203125 L 12.71875 0 L 4.4375 0 L 4.4375 -42.59375 L 13.3125 -42.59375 L 25.921875 -18.359375 L 38.640625 -42.59375 L 47.453125 -42.59375 L 47.453125 0 Z M 39.1875 0 "/></g></g><g style="fill:#670404;fill-opacity:1;"><g transform="translate(256.058782, 200.261939)"><path style="stroke:none" d="M 36.296875 -35.34375 L 22.6875 -35.34375 L 22.6875 0 L 14.453125 0 L 14.453125 -35.34375 L 0.84375 -35.34375 L 0.84375 -42.59375 L 36.296875 -42.59375 Z M 36.296875 -35.34375 "/></g></g><g style="fill:#670404;fill-opacity:1;"><g transform="translate(167.396053, 224.009107)"><path style="stroke:none" d="M 10.1875 -9.921875 L 6.359375 -9.921875 L 6.359375 0 L 4.0625 0 L 4.0625 -9.921875 L 0.234375 -9.921875 L 0.234375 -11.953125 L 10.1875 -11.953125 Z M 10.1875 -9.921875 "/></g></g><g style="fill:#670404;fill-opacity:1;"><g transform="translate(178.830828, 224.009107)"><path style="stroke:none" d="M 1.03125 0 L 1.03125 -8.828125 L 3.28125 -8.828125 L 3.28125 0 Z M 1.03125 -10.0625 L 1.03125 -12.296875 L 3.28125 -12.296875 L 3.28125 -10.0625 Z M 1.03125 -10.0625 "/></g></g><g style="fill:#670404;fill-opacity:1;"><g transform="translate(184.13592, 224.009107)"><path style="stroke:none" d="M 14.734375 0 L 12.484375 0 L 12.484375 -4.953125 C 12.484375 -5.660156 12.359375 -6.175781 12.109375 -6.5 C 11.867188 -6.820312 11.535156 -6.984375 11.109375 -6.984375 C 10.660156 -6.984375 10.238281 -6.8125 9.84375 -6.46875 C 9.457031 -6.132812 9.179688 -5.691406 9.015625 -5.140625 L 9.015625 0 L 6.75 0 L 6.75 -4.953125 C 6.75 -5.660156 6.628906 -6.175781 6.390625 -6.5 C 6.148438 -6.820312 5.816406 -6.984375 5.390625 -6.984375 C 4.953125 -6.984375 4.53125 -6.816406 4.125 -6.484375 C 3.726562 -6.148438 3.445312 -5.707031 3.28125 -5.15625 L 3.28125 0 L 1.03125 0 L 1.03125 -8.828125 L 3.0625 -8.828125 L 3.0625 -7.1875 C 3.382812 -7.757812 3.828125 -8.203125 4.390625 -8.515625 C 4.960938 -8.828125 5.613281 -8.984375 6.34375 -8.984375 C 7.09375 -8.984375 7.664062 -8.800781 8.0625 -8.4375 C 8.46875 -8.082031 8.726562 -7.640625 8.84375 -7.109375 C 9.195312 -7.710938 9.648438 -8.175781 10.203125 -8.5 C 10.753906 -8.820312 11.382812 -8.984375 12.09375 -8.984375 C 12.632812 -8.984375 13.078125 -8.878906 13.421875 -8.671875 C 13.773438 -8.472656 14.046875 -8.207031 14.234375 -7.875 C 14.421875 -7.550781 14.550781 -7.179688 14.625 -6.765625 C 14.695312 -6.347656 14.734375 -5.929688 14.734375 -5.515625 Z M 14.734375 0 "/></g></g><g style="fill:#670404;fill-opacity:1;"><g transform="translate(200.824712, 224.009107)"><path style="stroke:none" d="M 6.046875 0.171875 C 5.367188 0.171875 4.765625 0.0195312 4.234375 -0.28125 C 3.710938 -0.582031 3.300781 -1 3 -1.53125 L 3 0 L 1.03125 0 L 1.03125 -12.296875 L 3.28125 -12.296875 L 3.28125 -7.28125 C 3.59375 -7.8125 4.003906 -8.226562 4.515625 -8.53125 C 5.023438 -8.832031 5.625 -8.984375 6.3125 -8.984375 C 6.882812 -8.984375 7.40625 -8.859375 7.875 -8.609375 C 8.351562 -8.359375 8.765625 -8.023438 9.109375 -7.609375 C 9.453125 -7.191406 9.710938 -6.703125 9.890625 -6.140625 C 10.078125 -5.585938 10.171875 -5 10.171875 -4.375 C 10.171875 -3.738281 10.066406 -3.144531 9.859375 -2.59375 C 9.648438 -2.039062 9.359375 -1.554688 8.984375 -1.140625 C 8.617188 -0.734375 8.179688 -0.410156 7.671875 -0.171875 C 7.171875 0.0546875 6.628906 0.171875 6.046875 0.171875 Z M 5.421875 -1.75 C 5.785156 -1.75 6.117188 -1.816406 6.421875 -1.953125 C 6.722656 -2.097656 6.976562 -2.285156 7.1875 -2.515625 C 7.40625 -2.753906 7.570312 -3.03125 7.6875 -3.34375 C 7.800781 -3.664062 7.859375 -4.003906 7.859375 -4.359375 C 7.859375 -4.722656 7.800781 -5.066406 7.6875 -5.390625 C 7.582031 -5.710938 7.425781 -6 7.21875 -6.25 C 7.007812 -6.5 6.765625 -6.695312 6.484375 -6.84375 C 6.203125 -6.988281 5.894531 -7.0625 5.5625 -7.0625 C 5.050781 -7.0625 4.597656 -6.894531 4.203125 -6.5625 C 3.804688 -6.226562 3.5 -5.820312 3.28125 -5.34375 L 3.28125 -3.234375 C 3.363281 -3.003906 3.476562 -2.800781 3.625 -2.625 C 3.78125 -2.445312 3.953125 -2.289062 4.140625 -2.15625 C 4.335938 -2.03125 4.546875 -1.929688 4.765625 -1.859375 C 4.992188 -1.785156 5.210938 -1.75 5.421875 -1.75 Z M 5.421875 -1.75 "/></g></g><g style="fill:#670404;fill-opacity:1;"><g transform="translate(212.512081, 224.009107)"><path style="stroke:none" d="M 5.125 0.171875 C 4.414062 0.171875 3.773438 0.0507812 3.203125 -0.1875 C 2.628906 -0.4375 2.140625 -0.765625 1.734375 -1.171875 C 1.328125 -1.585938 1.015625 -2.070312 0.796875 -2.625 C 0.578125 -3.175781 0.46875 -3.753906 0.46875 -4.359375 C 0.46875 -4.992188 0.570312 -5.585938 0.78125 -6.140625 C 1 -6.691406 1.3125 -7.175781 1.71875 -7.59375 C 2.125 -8.019531 2.613281 -8.359375 3.1875 -8.609375 C 3.769531 -8.859375 4.421875 -8.984375 5.140625 -8.984375 C 5.859375 -8.984375 6.5 -8.859375 7.0625 -8.609375 C 7.632812 -8.359375 8.117188 -8.023438 8.515625 -7.609375 C 8.910156 -7.191406 9.210938 -6.707031 9.421875 -6.15625 C 9.628906 -5.613281 9.734375 -5.046875 9.734375 -4.453125 C 9.734375 -4.304688 9.726562 -4.164062 9.71875 -4.03125 C 9.71875 -3.894531 9.707031 -3.78125 9.6875 -3.6875 L 2.859375 -3.6875 C 2.890625 -3.34375 2.972656 -3.035156 3.109375 -2.765625 C 3.242188 -2.492188 3.414062 -2.257812 3.625 -2.0625 C 3.84375 -1.875 4.085938 -1.726562 4.359375 -1.625 C 4.628906 -1.53125 4.910156 -1.484375 5.203125 -1.484375 C 5.648438 -1.484375 6.070312 -1.59375 6.46875 -1.8125 C 6.875 -2.03125 7.148438 -2.316406 7.296875 -2.671875 L 9.234375 -2.140625 C 8.898438 -1.460938 8.378906 -0.90625 7.671875 -0.46875 C 6.960938 -0.0390625 6.113281 0.171875 5.125 0.171875 Z M 7.40625 -5.15625 C 7.351562 -5.8125 7.109375 -6.335938 6.671875 -6.734375 C 6.242188 -7.140625 5.722656 -7.34375 5.109375 -7.34375 C 4.804688 -7.34375 4.519531 -7.289062 4.25 -7.1875 C 3.988281 -7.082031 3.753906 -6.929688 3.546875 -6.734375 C 3.347656 -6.546875 3.179688 -6.316406 3.046875 -6.046875 C 2.921875 -5.773438 2.847656 -5.476562 2.828125 -5.15625 Z M 7.40625 -5.15625 "/></g></g><g style="fill:#670404;fill-opacity:1;"><g transform="translate(223.610057, 224.009107)"><path style="stroke:none" d="M 6.28125 -6.875 C 5.59375 -6.863281 4.976562 -6.726562 4.4375 -6.46875 C 3.90625 -6.21875 3.519531 -5.84375 3.28125 -5.34375 L 3.28125 0 L 1.03125 0 L 1.03125 -8.828125 L 3.09375 -8.828125 L 3.09375 -6.9375 C 3.25 -7.238281 3.429688 -7.507812 3.640625 -7.75 C 3.859375 -8 4.09375 -8.210938 4.34375 -8.390625 C 4.59375 -8.566406 4.84375 -8.703125 5.09375 -8.796875 C 5.34375 -8.890625 5.585938 -8.9375 5.828125 -8.9375 C 5.953125 -8.9375 6.046875 -8.9375 6.109375 -8.9375 C 6.171875 -8.9375 6.226562 -8.929688 6.28125 -8.921875 Z M 6.28125 -6.875 "/></g></g><g style="fill:#670404;fill-opacity:1;"><g transform="translate(231.137992, 224.009107)"><path style="stroke:none" d=""/></g></g><g style="fill:#670404;fill-opacity:1;"><g transform="translate(236.190478, 224.009107)"><path style="stroke:none" d="M 9.03125 0 L 8.078125 -1 C 7.585938 -0.613281 7.054688 -0.320312 6.484375 -0.125 C 5.910156 0.0703125 5.320312 0.171875 4.71875 0.171875 C 4.101562 0.171875 3.546875 0.078125 3.046875 -0.109375 C 2.546875 -0.304688 2.117188 -0.566406 1.765625 -0.890625 C 1.421875 -1.210938 1.148438 -1.585938 0.953125 -2.015625 C 0.765625 -2.453125 0.671875 -2.910156 0.671875 -3.390625 C 0.671875 -3.753906 0.726562 -4.09375 0.84375 -4.40625 C 0.957031 -4.726562 1.109375 -5.019531 1.296875 -5.28125 C 1.492188 -5.539062 1.71875 -5.78125 1.96875 -6 C 2.226562 -6.226562 2.5 -6.441406 2.78125 -6.640625 C 2.300781 -7.171875 1.960938 -7.628906 1.765625 -8.015625 C 1.566406 -8.410156 1.46875 -8.820312 1.46875 -9.25 C 1.46875 -9.675781 1.550781 -10.066406 1.71875 -10.421875 C 1.882812 -10.773438 2.113281 -11.078125 2.40625 -11.328125 C 2.695312 -11.578125 3.039062 -11.769531 3.4375 -11.90625 C 3.84375 -12.039062 4.28125 -12.109375 4.75 -12.109375 C 5.164062 -12.109375 5.5625 -12.050781 5.9375 -11.9375 C 6.320312 -11.832031 6.660156 -11.664062 6.953125 -11.4375 C 7.242188 -11.21875 7.476562 -10.941406 7.65625 -10.609375 C 7.84375 -10.285156 7.9375 -9.90625 7.9375 -9.46875 C 7.9375 -8.8125 7.742188 -8.238281 7.359375 -7.75 C 6.972656 -7.269531 6.484375 -6.816406 5.890625 -6.390625 L 8.1875 -3.984375 C 8.351562 -4.347656 8.484375 -4.742188 8.578125 -5.171875 C 8.671875 -5.597656 8.71875 -6.054688 8.71875 -6.546875 L 10.5625 -6.546875 C 10.550781 -5.753906 10.453125 -5.03125 10.265625 -4.375 C 10.085938 -3.726562 9.835938 -3.132812 9.515625 -2.59375 L 12 0 Z M 4.9375 -1.59375 C 5.632812 -1.59375 6.28125 -1.828125 6.875 -2.296875 L 4.109375 -5.203125 C 3.710938 -4.921875 3.398438 -4.632812 3.171875 -4.34375 C 2.953125 -4.050781 2.84375 -3.726562 2.84375 -3.375 C 2.84375 -3.132812 2.894531 -2.90625 3 -2.6875 C 3.101562 -2.46875 3.242188 -2.28125 3.421875 -2.125 C 3.609375 -1.96875 3.832031 -1.835938 4.09375 -1.734375 C 4.351562 -1.640625 4.632812 -1.59375 4.9375 -1.59375 Z M 3.515625 -9.3125 C 3.515625 -9.207031 3.53125 -9.109375 3.5625 -9.015625 C 3.601562 -8.921875 3.660156 -8.816406 3.734375 -8.703125 C 3.816406 -8.597656 3.921875 -8.472656 4.046875 -8.328125 C 4.179688 -8.179688 4.347656 -8 4.546875 -7.78125 C 4.972656 -8.070312 5.296875 -8.34375 5.515625 -8.59375 C 5.742188 -8.851562 5.859375 -9.132812 5.859375 -9.4375 C 5.859375 -9.738281 5.753906 -9.976562 5.546875 -10.15625 C 5.335938 -10.34375 5.070312 -10.4375 4.75 -10.4375 C 4.394531 -10.4375 4.097656 -10.328125 3.859375 -10.109375 C 3.628906 -9.890625 3.515625 -9.625 3.515625 -9.3125 Z M 3.515625 -9.3125 "/></g></g><g style="fill:#670404;fill-opacity:1;"><g transform="translate(249.191354, 224.009107)"><path style="stroke:none" d=""/></g></g><g style="fill:#670404;fill-opacity:1;"><g transform="translate(254.24384, 224.009107)"><path style="stroke:none" d="M 8.375 -8.828125 C 8.289062 -8.898438 8.144531 -9.003906 7.9375 -9.140625 C 7.726562 -9.273438 7.472656 -9.40625 7.171875 -9.53125 C 6.878906 -9.664062 6.554688 -9.773438 6.203125 -9.859375 C 5.859375 -9.953125 5.507812 -10 5.15625 -10 C 4.507812 -10 4.03125 -9.878906 3.71875 -9.640625 C 3.40625 -9.410156 3.25 -9.082031 3.25 -8.65625 C 3.25 -8.40625 3.304688 -8.195312 3.421875 -8.03125 C 3.546875 -7.875 3.71875 -7.734375 3.9375 -7.609375 C 4.164062 -7.484375 4.453125 -7.367188 4.796875 -7.265625 C 5.140625 -7.171875 5.535156 -7.066406 5.984375 -6.953125 C 6.566406 -6.796875 7.09375 -6.628906 7.5625 -6.453125 C 8.039062 -6.273438 8.445312 -6.050781 8.78125 -5.78125 C 9.113281 -5.507812 9.367188 -5.1875 9.546875 -4.8125 C 9.722656 -4.4375 9.8125 -3.972656 9.8125 -3.421875 C 9.8125 -2.773438 9.691406 -2.222656 9.453125 -1.765625 C 9.210938 -1.316406 8.882812 -0.953125 8.46875 -0.671875 C 8.0625 -0.390625 7.59375 -0.179688 7.0625 -0.046875 C 6.53125 0.078125 5.972656 0.140625 5.390625 0.140625 C 4.492188 0.140625 3.609375 0.00390625 2.734375 -0.265625 C 1.859375 -0.535156 1.070312 -0.921875 0.375 -1.421875 L 1.390625 -3.421875 C 1.492188 -3.316406 1.675781 -3.179688 1.9375 -3.015625 C 2.207031 -2.859375 2.519531 -2.695312 2.875 -2.53125 C 3.238281 -2.375 3.640625 -2.238281 4.078125 -2.125 C 4.515625 -2.007812 4.960938 -1.953125 5.421875 -1.953125 C 6.703125 -1.953125 7.34375 -2.363281 7.34375 -3.1875 C 7.34375 -3.445312 7.269531 -3.664062 7.125 -3.84375 C 6.976562 -4.019531 6.769531 -4.175781 6.5 -4.3125 C 6.226562 -4.445312 5.898438 -4.566406 5.515625 -4.671875 C 5.140625 -4.785156 4.71875 -4.910156 4.25 -5.046875 C 3.675781 -5.203125 3.175781 -5.375 2.75 -5.5625 C 2.332031 -5.75 1.984375 -5.96875 1.703125 -6.21875 C 1.421875 -6.476562 1.207031 -6.769531 1.0625 -7.09375 C 0.925781 -7.425781 0.859375 -7.820312 0.859375 -8.28125 C 0.859375 -8.894531 0.96875 -9.4375 1.1875 -9.90625 C 1.414062 -10.375 1.726562 -10.765625 2.125 -11.078125 C 2.53125 -11.398438 2.992188 -11.640625 3.515625 -11.796875 C 4.046875 -11.960938 4.613281 -12.046875 5.21875 -12.046875 C 6.0625 -12.046875 6.835938 -11.910156 7.546875 -11.640625 C 8.253906 -11.378906 8.875 -11.070312 9.40625 -10.71875 Z M 8.375 -8.828125 "/></g></g><g style="fill:#670404;fill-opacity:1;"><g transform="translate(265.577576, 224.009107)"><path style="stroke:none" d="M 3.4375 0.171875 C 3.007812 0.171875 2.609375 0.101562 2.234375 -0.03125 C 1.867188 -0.175781 1.550781 -0.375 1.28125 -0.625 C 1.007812 -0.882812 0.796875 -1.179688 0.640625 -1.515625 C 0.492188 -1.847656 0.421875 -2.21875 0.421875 -2.625 C 0.421875 -3.039062 0.515625 -3.425781 0.703125 -3.78125 C 0.890625 -4.132812 1.144531 -4.429688 1.46875 -4.671875 C 1.800781 -4.921875 2.195312 -5.113281 2.65625 -5.25 C 3.125 -5.394531 3.628906 -5.46875 4.171875 -5.46875 C 4.566406 -5.46875 4.953125 -5.429688 5.328125 -5.359375 C 5.703125 -5.296875 6.035156 -5.207031 6.328125 -5.09375 L 6.328125 -5.59375 C 6.328125 -6.175781 6.160156 -6.625 5.828125 -6.9375 C 5.503906 -7.25 5.015625 -7.40625 4.359375 -7.40625 C 3.890625 -7.40625 3.429688 -7.320312 2.984375 -7.15625 C 2.535156 -6.988281 2.070312 -6.742188 1.59375 -6.421875 L 0.90625 -7.84375 C 2.039062 -8.601562 3.265625 -8.984375 4.578125 -8.984375 C 5.847656 -8.984375 6.832031 -8.671875 7.53125 -8.046875 C 8.238281 -7.421875 8.59375 -6.519531 8.59375 -5.34375 L 8.59375 -2.59375 C 8.59375 -2.351562 8.632812 -2.179688 8.71875 -2.078125 C 8.800781 -1.984375 8.9375 -1.929688 9.125 -1.921875 L 9.125 0 C 8.75 0.0820312 8.421875 0.125 8.140625 0.125 C 7.710938 0.125 7.382812 0.03125 7.15625 -0.15625 C 6.925781 -0.351562 6.78125 -0.609375 6.71875 -0.921875 L 6.671875 -1.421875 C 6.273438 -0.898438 5.796875 -0.503906 5.234375 -0.234375 C 4.671875 0.0351562 4.070312 0.171875 3.4375 0.171875 Z M 4.078125 -1.484375 C 4.460938 -1.484375 4.820312 -1.550781 5.15625 -1.6875 C 5.5 -1.820312 5.769531 -2 5.96875 -2.21875 C 6.207031 -2.414062 6.328125 -2.628906 6.328125 -2.859375 L 6.328125 -3.875 C 6.054688 -3.976562 5.765625 -4.0625 5.453125 -4.125 C 5.140625 -4.1875 4.835938 -4.21875 4.546875 -4.21875 C 3.960938 -4.21875 3.484375 -4.082031 3.109375 -3.8125 C 2.742188 -3.550781 2.5625 -3.21875 2.5625 -2.8125 C 2.5625 -2.425781 2.707031 -2.109375 3 -1.859375 C 3.289062 -1.609375 3.648438 -1.484375 4.078125 -1.484375 Z M 4.078125 -1.484375 "/></g></g><g style="fill:#670404;fill-opacity:1;"><g transform="translate(276.254558, 224.009107)"><path style="stroke:none" d="M 11.96875 -8.828125 L 14.109375 -8.828125 L 10.421875 0 L 8.578125 0 L 7.0625 -3.875 L 5.5625 0 L 3.703125 0 L 0.03125 -8.828125 L 2.15625 -8.828125 L 4.78125 -2.125 L 5.859375 -4.984375 L 4.3125 -8.8125 L 6.125 -8.8125 L 7.0625 -6.09375 L 8 -8.8125 L 9.8125 -8.8125 L 8.28125 -4.984375 L 9.34375 -2.125 Z M 11.96875 -8.828125 "/></g></g><g style="fill:#670404;fill-opacity:1;"><g transform="translate(291.394083, 224.009107)"><path style="stroke:none" d=""/></g></g><g style="fill:#670404;fill-opacity:1;"><g transform="translate(296.44657, 224.009107)"><path style="stroke:none" d="M 11 0 L 11 -7.921875 L 7.921875 -2.015625 L 6.65625 -2.015625 L 3.578125 -7.921875 L 3.578125 0 L 1.25 0 L 1.25 -11.953125 L 3.734375 -11.953125 L 7.28125 -5.15625 L 10.84375 -11.953125 L 13.328125 -11.953125 L 13.328125 0 Z M 11 0 "/></g></g><g style="fill:#670404;fill-opacity:1;"><g transform="translate(312.023934, 224.009107)"><path style="stroke:none" d="M 1.03125 0 L 1.03125 -8.828125 L 3.28125 -8.828125 L 3.28125 0 Z M 1.03125 -10.0625 L 1.03125 -12.296875 L 3.28125 -12.296875 L 3.28125 -10.0625 Z M 1.03125 -10.0625 "/></g></g><g style="fill:#670404;fill-opacity:1;"><g transform="translate(317.329026, 224.009107)"><path style="stroke:none" d="M 1.015625 -12.296875 L 3.265625 -12.296875 L 3.265625 -2.828125 C 3.265625 -2.503906 3.34375 -2.25 3.5 -2.0625 C 3.65625 -1.882812 3.878906 -1.796875 4.171875 -1.796875 C 4.304688 -1.796875 4.457031 -1.816406 4.625 -1.859375 C 4.789062 -1.910156 4.945312 -1.96875 5.09375 -2.03125 L 5.390625 -0.3125 C 5.085938 -0.164062 4.734375 -0.0546875 4.328125 0.015625 C 3.921875 0.0976562 3.554688 0.140625 3.234375 0.140625 C 2.523438 0.140625 1.976562 -0.046875 1.59375 -0.421875 C 1.207031 -0.804688 1.015625 -1.34375 1.015625 -2.03125 Z M 1.015625 -12.296875 "/></g></g><g style="fill:#670404;fill-opacity:1;"><g transform="translate(323.678185, 224.009107)"><path style="stroke:none" d="M 1.015625 -12.296875 L 3.265625 -12.296875 L 3.265625 -2.828125 C 3.265625 -2.503906 3.34375 -2.25 3.5 -2.0625 C 3.65625 -1.882812 3.878906 -1.796875 4.171875 -1.796875 C 4.304688 -1.796875 4.457031 -1.816406 4.625 -1.859375 C 4.789062 -1.910156 4.945312 -1.96875 5.09375 -2.03125 L 5.390625 -0.3125 C 5.085938 -0.164062 4.734375 -0.0546875 4.328125 0.015625 C 3.921875 0.0976562 3.554688 0.140625 3.234375 0.140625 C 2.523438 0.140625 1.976562 -0.046875 1.59375 -0.421875 C 1.207031 -0.804688 1.015625 -1.34375 1.015625 -2.03125 Z M 1.015625 -12.296875 "/></g></g></g></svg>